<svg width="84" height="87" viewBox="0 0 84 87" fill="none" xmlns="http://www.w3.org/2000/svg">
<path d="M39.3391 76.7573C20.9431 76.7573 6.03114 61.844 6.03114 43.4493C6.03114 25.0533 20.9431 10.14 39.3391 10.14C57.7351 10.14 72.6471 25.0533 72.6471 43.4493C72.6471 61.844 57.7351 76.7573 39.3391 76.7573V76.7573ZM39.3764 1.15599C49.6191 1.16532 59.0085 4.81731 66.3205 10.884L63.0845 14.12C56.6085 8.87065 48.3604 5.72134 39.3764 5.71201V1.15599ZM73.2351 43.4987H77.0751C77.0751 43.4813 77.0764 43.4653 77.0764 43.4493C77.0764 41.7386 76.9605 40.056 76.7391 38.4053H81.3298C80.4364 30.884 77.5684 23.9693 73.2604 18.1907L70.0018 21.4506C68.2578 19.0226 66.2338 16.812 63.9751 14.8627L68.0338 10.804L67.0578 9.99466C59.3018 3.55999 49.4711 0.0106647 39.3778 0.00133134L38.2218 -3.29979e-06V5.72933C17.8978 6.32133 1.60181 22.9813 1.60181 43.4493C1.60181 43.4653 1.60314 43.4813 1.60314 43.4987H5.44312C5.45778 54.0733 10.3151 63.5106 17.9165 69.7173L15.1898 72.4453C21.5818 77.7747 29.7645 81.0227 38.7031 81.172V77.3373C38.9151 77.3413 39.1271 77.3453 39.3391 77.3453C58.0431 77.3453 73.2084 62.196 73.2351 43.4987" fill="#00B3EB" fill-opacity="0.7"/>
<path d="M33.9111 4.30533V1.82398C27.4897 2.65598 21.5244 4.93866 16.3524 8.33199L18.1378 10.1173C22.8191 7.13331 28.1644 5.09866 33.9111 4.30533" fill="#00B3EB" fill-opacity="0.7"/>
<path d="M59.0431 25.8347C57.4911 27.3867 55.9391 28.9387 54.3871 30.4907C57.3858 33.9693 59.2031 38.496 59.2031 43.4493C59.2031 48.42 57.3738 52.96 54.3552 56.4427L59.0058 61.0933C63.2085 56.4147 65.7725 50.2333 65.7725 43.4493C65.7725 36.6813 63.2271 30.5107 59.0431 25.8347Z" fill="#00B3EB" fill-opacity="0.7"/>
<path d="M30.0605 69.5773V67.66C26.5071 66.2973 23.3338 64.1746 20.7311 61.4933L25.0191 57.2053C21.5885 53.636 19.4751 48.7906 19.4751 43.4493C19.4751 38.4786 21.3045 33.9386 24.3218 30.4546L20.0271 26.1586C22.7511 23.12 26.1805 20.7253 30.0605 19.2373V17.32C19.3125 21.1373 11.6138 31.392 11.6138 43.4493C11.6138 55.5053 19.3125 65.76 30.0605 69.5773Z" fill="#00B3EB" fill-opacity="0.7"/>
<path d="M2.66717 48.9613C2.6485 48.2239 2.03516 47.6426 1.29783 47.6626C0.561832 47.6826 -0.019499 48.2946 0.000500967 49.032C0.0191676 49.768 0.632504 50.3493 1.36984 50.3306C2.10584 50.3106 2.68717 49.6973 2.66717 48.9613Z" fill="#00B3EB" fill-opacity="0.7"/>
<path d="M3.43383 53.2853C3.41383 52.548 2.80183 51.9666 2.06449 51.9866C1.32849 52.0066 0.747164 52.62 0.767164 53.356C0.78583 54.092 1.39916 54.6733 2.13516 54.6546C2.8725 54.6346 3.45383 54.0213 3.43383 53.2853Z" fill="#00B3EB" fill-opacity="0.7"/>
<path d="M4.52317 57.492C4.50317 56.756 3.89117 56.1746 3.15384 56.1933C2.41784 56.2133 1.83651 56.8266 1.85517 57.5626C1.87517 58.3 2.48851 58.88 3.22451 58.8613C3.96184 58.8413 4.54317 58.228 4.52317 57.492Z" fill="#00B3EB" fill-opacity="0.7"/>
<path d="M6.36581 61.4613C6.34714 60.7253 5.73381 60.1439 4.99781 60.1639C4.26047 60.1826 3.67914 60.7959 3.69914 61.5319C3.71914 62.2693 4.33114 62.8506 5.06848 62.8306C5.80448 62.8106 6.38581 62.1986 6.36581 61.4613Z" fill="#00B3EB" fill-opacity="0.7"/>
<path d="M7.15781 63.7986C6.42048 63.8186 5.83914 64.4306 5.85914 65.168C5.87914 65.904 6.49115 66.4853 7.22848 66.4666C7.96448 66.4466 8.54581 65.8333 8.52581 65.0973C8.50714 64.36 7.89381 63.7786 7.15781 63.7986Z" fill="#00B3EB" fill-opacity="0.7"/>
<path d="M9.74847 67.3146C9.01247 67.3333 8.43114 67.9466 8.44981 68.6826C8.46981 69.4199 9.08314 70.0013 9.81914 69.9813C10.5565 69.9613 11.1378 69.3493 11.1178 68.612C11.0978 67.876 10.4858 67.2946 9.74847 67.3146Z" fill="#00B3EB" fill-opacity="0.7"/>
<path d="M9.64047 43.4493C9.64047 43.376 9.64581 43.3026 9.64581 43.2293H7.63917C7.63783 43.3026 7.63516 43.376 7.63516 43.4493C7.63516 60.516 21.1218 74.4266 38.0178 75.12V73.1146C22.2298 72.4226 9.64047 59.408 9.64047 43.4493" fill="#00B3EB" fill-opacity="0.7"/>
<path d="M39.3392 11.7453C31.5485 11.7453 24.4178 14.56 18.8992 19.2226L20.3192 20.6427C25.4725 16.3413 32.1018 13.7506 39.3392 13.7506C55.7418 13.7506 69.0378 27.0466 69.0378 43.4493C69.0378 50.6853 66.4471 57.316 62.1458 62.468L63.5658 63.8893C68.2285 58.3693 71.0431 51.24 71.0431 43.4493C71.0431 25.9386 56.8485 11.7453 39.3392 11.7453" fill="#00B3EB" fill-opacity="0.7"/>
<path d="M57.7005 81.4666C57.3058 80.5386 56.8964 79.596 56.4738 78.6453C65.0111 74.4813 71.7951 67.2973 75.4618 58.54C76.5165 58.9226 77.4725 59.2573 78.3805 59.56C74.4258 69.116 67.0258 76.956 57.7005 81.4666ZM81.6604 45.0266C81.4964 49.4893 80.6311 53.776 79.1845 57.7853C77.7605 57.312 76.3458 56.8173 74.9271 56.292C75.8684 53.684 76.5378 50.9453 76.8858 48.108H74.6552C72.5885 63.924 60.1458 76.4773 44.3831 78.712V80.9426C47.8165 80.4853 51.1018 79.56 54.1805 78.2453C54.8018 79.6187 55.4018 81 55.9911 82.3866C53.7138 83.3653 51.3364 84.156 48.8751 84.724V86.6986C68.2511 82.4453 82.8685 65.5053 83.5858 45.0266H81.6604Z" fill="#00B3EB" fill-opacity="0.7"/>
<path d="M56.7937 21.752C52.0177 17.904 45.9498 15.596 39.3391 15.596C38.7524 15.596 38.1724 15.624 37.5951 15.6613C37.6431 15.8947 37.6898 16.1267 37.7378 16.36C38.2684 16.3267 38.8004 16.3013 39.3391 16.3013C45.7738 16.3013 51.6791 18.548 56.3311 22.2906C56.4858 22.112 56.6391 21.9306 56.7937 21.752" fill="#00B3EB" fill-opacity="0.7"/>
</svg>
